<svg width="1810" height="1024" viewBox="0 0 1810 1024" fill="none" xmlns="http://www.w3.org/2000/svg">
<rect x="1698" y="234.949" width="241.759" height="76" rx="38" transform="rotate(-45 1698 234.949)" fill="#5292F7"/>
<rect x="1698" y="234.949" width="241.759" height="76" rx="38" transform="rotate(-45 1698 234.949)" fill="black" fill-opacity="0.2"/>
<rect x="-83" y="1060.21" width="409" height="76" rx="38" transform="rotate(-45 -83 1060.21)" fill="#4675C0" fill-opacity="0.9"/>
<rect x="-83" y="1060.21" width="409" height="76" rx="38" transform="rotate(-45 -83 1060.21)" fill="black" fill-opacity="0.4"/>
<rect x="-0.346069" y="1053.55" width="191.7" height="76" rx="38" transform="rotate(-45 -0.346069 1053.55)" fill="#5292F7"/>
<rect x="-0.346069" y="1053.55" width="191.7" height="76" rx="38" transform="rotate(-45 -0.346069 1053.55)" fill="black" fill-opacity="0.2"/>
<rect x="209" y="960.553" width="191.7" height="76" rx="38" transform="rotate(-45 209 960.553)" fill="#4675C0" fill-opacity="0.9"/>
<rect x="209" y="960.553" width="191.7" height="76" rx="38" transform="rotate(-45 209 960.553)" fill="black" fill-opacity="0.4"/>
<rect x="-101.485" y="936.038" width="142.889" height="76" rx="38" transform="rotate(-45 -101.485 936.038)" fill="#4675C0" fill-opacity="0.9"/>
<rect x="-101.485" y="936.038" width="142.889" height="76" rx="38" transform="rotate(-45 -101.485 936.038)" fill="black" fill-opacity="0.4"/>
<rect x="15" y="824.781" width="111.568" height="76" rx="38" transform="rotate(-45 15 824.781)" fill="#5292F7"/>
<rect x="15" y="824.781" width="111.568" height="76" rx="38" transform="rotate(-45 15 824.781)" fill="black" fill-opacity="0.2"/>
<rect x="1464" y="120.553" width="191.7" height="76" rx="38" transform="rotate(-45 1464 120.553)" fill="#5292F7"/>
<rect x="1464" y="120.553" width="191.7" height="76" rx="38" transform="rotate(-45 1464 120.553)" fill="black" fill-opacity="0.2"/>
<rect x="1620.49" y="113.662" width="191.7" height="76" rx="38" transform="rotate(-45 1620.49 113.662)" fill="#4675C0" fill-opacity="0.9"/>
<rect x="1620.49" y="113.662" width="191.7" height="76" rx="38" transform="rotate(-45 1620.49 113.662)" fill="black" fill-opacity="0.4"/>
<rect x="1310" y="89.1475" width="142.889" height="76" rx="38" transform="rotate(-45 1310 89.1475)" fill="#4675C0" fill-opacity="0.9"/>
<rect x="1310" y="89.1475" width="142.889" height="76" rx="38" transform="rotate(-45 1310 89.1475)" fill="black" fill-opacity="0.4"/>
<rect x="1426.49" y="-22.1094" width="111.568" height="76" rx="38" transform="rotate(-45 1426.49 -22.1094)" fill="#5292F7"/>
<rect x="1426.49" y="-22.1094" width="111.568" height="76" rx="38" transform="rotate(-45 1426.49 -22.1094)" fill="black" fill-opacity="0.2"/>
</svg>
