<svg width="65" height="73" viewBox="0 0 65 73" fill="none" xmlns="http://www.w3.org/2000/svg">
<path d="M25.2778 57.7778C26.2355 57.7778 27.154 57.3973 27.8312 56.7201C28.5084 56.0429 28.8889 55.1244 28.8889 54.1667V32.5C28.8889 31.5423 28.5084 30.6238 27.8312 29.9466C27.154 29.2693 26.2355 28.8889 25.2778 28.8889C24.3201 28.8889 23.4016 29.2693 22.7243 29.9466C22.0471 30.6238 21.6667 31.5423 21.6667 32.5V54.1667C21.6667 55.1244 22.0471 56.0429 22.7243 56.7201C23.4016 57.3973 24.3201 57.7778 25.2778 57.7778ZM61.3889 14.4444H46.9444V10.8333C46.9444 7.96016 45.8031 5.20465 43.7714 3.17301C41.7398 1.14137 38.9843 0 36.1111 0H28.8889C26.0157 0 23.2602 1.14137 21.2286 3.17301C19.1969 5.20465 18.0556 7.96016 18.0556 10.8333V14.4444H3.61111C2.65338 14.4444 1.73488 14.8249 1.05767 15.5021C0.380455 16.1793 0 17.0978 0 18.0556C0 19.0133 0.380455 19.9318 1.05767 20.609C1.73488 21.2862 2.65338 21.6667 3.61111 21.6667H7.22222V61.3889C7.22222 64.2621 8.36359 67.0176 10.3952 69.0492C12.4269 71.0809 15.1824 72.2222 18.0556 72.2222H46.9444C49.8176 72.2222 52.5731 71.0809 54.6048 69.0492C56.6364 67.0176 57.7778 64.2621 57.7778 61.3889V21.6667H61.3889C62.3466 21.6667 63.2651 21.2862 63.9423 20.609C64.6195 19.9318 65 19.0133 65 18.0556C65 17.0978 64.6195 16.1793 63.9423 15.5021C63.2651 14.8249 62.3466 14.4444 61.3889 14.4444ZM25.2778 10.8333C25.2778 9.87561 25.6582 8.95711 26.3354 8.27989C27.0127 7.60268 27.9312 7.22222 28.8889 7.22222H36.1111C37.0688 7.22222 37.9873 7.60268 38.6646 8.27989C39.3418 8.95711 39.7222 9.87561 39.7222 10.8333V14.4444H25.2778V10.8333ZM50.5556 61.3889C50.5556 62.3466 50.1751 63.2651 49.4979 63.9423C48.8207 64.6195 47.9022 65 46.9444 65H18.0556C17.0978 65 16.1793 64.6195 15.5021 63.9423C14.8249 63.2651 14.4444 62.3466 14.4444 61.3889V21.6667H50.5556V61.3889ZM39.7222 57.7778C40.68 57.7778 41.5984 57.3973 42.2757 56.7201C42.9529 56.0429 43.3333 55.1244 43.3333 54.1667V32.5C43.3333 31.5423 42.9529 30.6238 42.2757 29.9466C41.5984 29.2693 40.68 28.8889 39.7222 28.8889C38.7645 28.8889 37.846 29.2693 37.1688 29.9466C36.4916 30.6238 36.1111 31.5423 36.1111 32.5V54.1667C36.1111 55.1244 36.4916 56.0429 37.1688 56.7201C37.846 57.3973 38.7645 57.7778 39.7222 57.7778Z" fill="#4675C0"/>
</svg>
